<mxfile host="app.diagrams.net" modified="2023-09-16T12:50:47.106Z" agent="Mozilla/5.0 (Windows NT 10.0; Win64; x64) AppleWebKit/537.36 (KHTML, like Gecko) Chrome/118.0.0.0 Safari/537.36 Edg/118.0.0.0" version="21.7.5" etag="7OqoM4_T_C4pauR6-4Sh" type="github">
  <diagram name="Page-1" id="klIO-wWeeIupAEyl2phA">
    <mxGraphModel>
      <root>
        <mxCell id="0" />
        <mxCell id="1" parent="0" />
      </root>
    </mxGraphModel>
  </diagram>
</mxfile>
